<svg xmlns="http://www.w3.org/2000/svg" width="24" height="21.33" viewBox="0 0 24 21.33">
  <title>achievement</title>
  <g id="Camada_2" data-name="Camada 2">
    <g id="Camada_1-2" data-name="Camada 1">
      <path d="M23,2.67H18.67V1a1,1,0,0,0-1-1H6.33a1,1,0,0,0-1,1V2.67H1a1,1,0,0,0-1,1V6a5.45,5.45,0,0,0,2.58,4.2,9.79,9.79,0,0,0,4.58,1.73A9.27,9.27,0,0,0,10,15v3H8a2.41,2.41,0,0,0-2.67,2.33v.5a.5.5,0,0,0,.5.5H18.17a.5.5,0,0,0,.5-.5v-.5A2.41,2.41,0,0,0,16,18H14V15a9.27,9.27,0,0,0,2.84-3.07,9.75,9.75,0,0,0,4.58-1.73A5.45,5.45,0,0,0,24,6V3.67A1,1,0,0,0,23,2.67ZM4.14,8A3,3,0,0,1,2.67,6V5.33H5.34a14.93,14.93,0,0,0,.53,3.59A6.44,6.44,0,0,1,4.14,8ZM21.33,6a3.17,3.17,0,0,1-1.47,2,6.36,6.36,0,0,1-1.74.89,14.93,14.93,0,0,0,.53-3.59h2.68Z" style="fill: #1d1d1b"/>
    </g>
  </g>
</svg>
