<svg xmlns="http://www.w3.org/2000/svg" width="24" height="24" viewBox="0 0 24 24">
  <title>alura</title>
  <g id="Camada_2" data-name="Camada 2">
    <g id="Camada_1-2" data-name="Camada 1">
      <polygon points="14.62 11.89 14.62 11.88 14.62 11.88 14.62 11.89" style="fill: #1d1d1b"/>
      <path d="M14.31,12.33a1.84,1.84,0,0,1-.46.21l-1,.34c-.36.13-.69.25-1,.34s-.71.23-1,.36a3.18,3.18,0,0,0-.69.4,3.75,3.75,0,0,0-.51.61,1.92,1.92,0,0,0-.23.94A2.31,2.31,0,0,0,10,17.21a2.86,2.86,0,0,0,2,.55,2.8,2.8,0,0,0,2.07-.59,2.3,2.3,0,0,0,.55-1.65V11.89A.64.64,0,0,1,14.31,12.33Z" style="fill: #1d1d1b"/>
      <path d="M22.29,0H1.71A1.73,1.73,0,0,0,0,1.73V22.27A1.73,1.73,0,0,0,1.71,24H22.29A1.73,1.73,0,0,0,24,22.27V1.73A1.73,1.73,0,0,0,22.29,0ZM17.18,16.4a4.11,4.11,0,0,1-.2,1.18,2.5,2.5,0,0,1-.78,1.17,4.31,4.31,0,0,1-1.58.89A8,8,0,0,1,12,20a8,8,0,0,1-2.62-.36,4.31,4.31,0,0,1-1.58-.89A2.91,2.91,0,0,1,7,17.58a4.1,4.1,0,0,1-.2-1.17V15A3.67,3.67,0,0,1,7.42,13a3.22,3.22,0,0,1,1.69-1.31c.36-.13.78-.25,1.25-.41l1.35-.47c.44-.14.82-.28,1.14-.41s.4-.15.6-.21l.33-.16a1.38,1.38,0,0,0,.38-.32,2,2,0,0,0,.33-.48,1.35,1.35,0,0,0,.15-.62V8a1.59,1.59,0,0,0-.13-.61,1.44,1.44,0,0,0-.42-.59,2.24,2.24,0,0,0-.8-.42A4.08,4.08,0,0,0,12,6.21a2.7,2.7,0,0,0-2.06.6,2.15,2.15,0,0,0-.52,1.3.18.18,0,0,1-.2.18L7,8.33a.2.2,0,0,1-.2-.2V7.61a3.31,3.31,0,0,1,.29-1.4,2.9,2.9,0,0,1,.93-1.14A4.64,4.64,0,0,1,9.67,4.3,7.58,7.58,0,0,1,12,4a6.14,6.14,0,0,1,3.93,1,3.21,3.21,0,0,1,1.25,2.58Z" style="fill: #1d1d1b"/>
    </g>
  </g>
</svg>
