<svg xmlns="http://www.w3.org/2000/svg" width="32" height="32" viewBox="0 0 32 32">
  <title>education3</title>
  <g id="Camada_2" data-name="Camada 2">
    <g id="Camada_1-2" data-name="Camada 1">
      <path d="M31.56,6.56,25.44.44A1.76,1.76,0,0,0,24,0V8h8A1.73,1.73,0,0,0,31.56,6.56ZM22,8.5V0H9.5A1.5,1.5,0,0,0,8,1.5V8.31A4.84,4.84,0,0,1,9.65,8a3.85,3.85,0,0,1,2.72,1.14c.55.6.28.44,1.15.68a3.86,3.86,0,0,1,2.7,2.73c.19.83,0,.55.67,1.19a3.9,3.9,0,0,1,1,3.71c-.23.83-.23.5,0,1.38a3.9,3.9,0,0,1-1,3.71c-.6.59-.44.31-.67,1.19A3.89,3.89,0,0,1,14,26.3V32H30.5A1.5,1.5,0,0,0,32,30.5V10H23.5A1.5,1.5,0,0,1,22,8.5ZM15.46,21.14a1.86,1.86,0,0,0,.48-1.8,3,3,0,0,1,0-2.4,1.87,1.87,0,0,0-.48-1.8,2.94,2.94,0,0,1-1.18-2.08A1.82,1.82,0,0,0,13,11.75a2.87,2.87,0,0,1-2-1.2,1.83,1.83,0,0,0-1.77-.49,2.78,2.78,0,0,1-2.36,0,1.83,1.83,0,0,0-1.77.49,2.89,2.89,0,0,1-2,1.2,1.82,1.82,0,0,0-1.29,1.31A2.92,2.92,0,0,1,.54,15.14a1.87,1.87,0,0,0-.48,1.8,3,3,0,0,1,0,2.4,1.87,1.87,0,0,0,.48,1.8,3,3,0,0,1,1.18,2.08A1.83,1.83,0,0,0,3,24.54a3.58,3.58,0,0,1,1,.31V32l4-2,4,2V24.85a3.43,3.43,0,0,1,1-.31,1.85,1.85,0,0,0,1.29-1.32,3,3,0,0,1,1.18-2.08ZM8,22a4,4,0,1,1,4-4A4,4,0,0,1,8,22Z" style="fill: #1d1d1b"/>
    </g>
  </g>
</svg>
