<svg xmlns="http://www.w3.org/2000/svg" width="32" height="32" viewBox="0 0 32 32">
  <title>education1</title>
  <g id="Camada_2" data-name="Camada 2">
    <g id="Camada_1-2" data-name="Camada 1">
      <path d="M31.12,6.12,25.88.88A3,3,0,0,0,23.76,0H11A3,3,0,0,0,8,3v7.35A6.13,6.13,0,0,1,6.49,10a1.1,1.1,0,0,0-.31,0,1.21,1.21,0,0,0-.85.36,3.82,3.82,0,0,1-2.61,1.53,1.23,1.23,0,0,0-.86.88,3.91,3.91,0,0,1-1.5,2.65A1.28,1.28,0,0,0,0,16.63a3.94,3.94,0,0,1,0,3.05A1.3,1.3,0,0,0,.36,20.9a3.89,3.89,0,0,1,1.5,2.64,1.22,1.22,0,0,0,.86.88L3,24.5V31a1,1,0,0,0,1.45.89L8,30.12l3.55,1.77A1,1,0,0,0,12,32H29a3,3,0,0,0,3-3V8.25A3,3,0,0,0,31.12,6.12ZM24,2a.92.92,0,0,1,.46.26l5.25,5.24A1,1,0,0,1,30,8H24ZM2.08,19.79a5.09,5.09,0,0,0,0-3.27,5.11,5.11,0,0,0,1.6-2.82,4.89,4.89,0,0,0,2.74-1.6A6,6,0,0,0,8,12.36a6,6,0,0,0,1.57-.26,5.07,5.07,0,0,0,2.75,1.6,5,5,0,0,0,1.6,2.82,5.09,5.09,0,0,0,0,3.27,5.11,5.11,0,0,0-1.6,2.81A4.82,4.82,0,0,0,10,23.81a4.82,4.82,0,0,0-4,0A4.86,4.86,0,0,0,3.68,22.6a5.1,5.1,0,0,0-1.6-2.81Zm6.37,8.32a1,1,0,0,0-.9,0L5,29.38V25.62l0,0a1.18,1.18,0,0,0,1.49.17,2.8,2.8,0,0,1,3,0,1.16,1.16,0,0,0,.64.19,1.19,1.19,0,0,0,.85-.36l0,0v3.76L8.45,28.11ZM30,29a1,1,0,0,1-1,1H13V24.49l.28-.07a1.22,1.22,0,0,0,.86-.88,3.91,3.91,0,0,1,1.5-2.65A1.28,1.28,0,0,0,16,19.68a3.94,3.94,0,0,1,0-3.05,1.28,1.28,0,0,0-.32-1.21,3.93,3.93,0,0,1-1.5-2.65,1.23,1.23,0,0,0-.86-.88,3.82,3.82,0,0,1-2.61-1.53A1.14,1.14,0,0,0,10,10V3a1,1,0,0,1,1-1H22V8.5A1.49,1.49,0,0,0,23.5,10H30V29Z" style="fill: #1d1d1b"/>
    </g>
  </g>
</svg>
