<svg xmlns="http://www.w3.org/2000/svg" width="32" height="32" viewBox="0 0 32 32">
  <title>education2</title>
  <g id="Camada_2" data-name="Camada 2">
    <g id="Camada_1-2" data-name="Camada 1">
      <path d="M24,8V3.25L28.75,8Zm7.11-1.88L25.87.88A3,3,0,0,0,23.75,0H11A3,3,0,0,0,8,3V8h3V3H21V9.5A1.49,1.49,0,0,0,22.5,11H29V29H14v3H29a3,3,0,0,0,3-3V8.25A3,3,0,0,0,31.11,6.12Zm-15.65,15a1.86,1.86,0,0,0,.48-1.8,3,3,0,0,1,0-2.4,1.87,1.87,0,0,0-.48-1.8,2.93,2.93,0,0,1-1.17-2.08A1.85,1.85,0,0,0,13,11.75a2.87,2.87,0,0,1-2-1.2,1.8,1.8,0,0,0-1.77-.49,2.78,2.78,0,0,1-2.36,0,1.83,1.83,0,0,0-1.77.49,2.89,2.89,0,0,1-2,1.2,1.82,1.82,0,0,0-1.29,1.31A2.92,2.92,0,0,1,.54,15.14a1.87,1.87,0,0,0-.48,1.8,3,3,0,0,1,0,2.4,1.86,1.86,0,0,0,.48,1.8,3,3,0,0,1,1.18,2.08A1.83,1.83,0,0,0,3,24.54a3.58,3.58,0,0,1,1,.31V32l4-2,4,2V24.85a3.43,3.43,0,0,1,1-.31,1.85,1.85,0,0,0,1.29-1.32,3,3,0,0,1,1.18-2.08ZM8,22a4,4,0,1,1,4-4A4,4,0,0,1,8,22Z" style="fill: #1d1d1b"/>
    </g>
  </g>
</svg>
