<svg xmlns="http://www.w3.org/2000/svg" width="24" height="18" viewBox="0 0 24 18">
  <title>email</title>
  <g id="Camada_2" data-name="Camada 2">
    <g id="Camada_1-2" data-name="Camada 1">
      <path d="M23.55,5.94a.28.28,0,0,1,.45.22v9.59A2.25,2.25,0,0,1,21.75,18H2.25A2.25,2.25,0,0,1,0,15.75V6.17A.28.28,0,0,1,.45,6C1.5,6.76,2.9,7.8,7.68,11.27c1,.73,2.66,2.24,4.32,2.23s3.37-1.53,4.33-2.23C21.11,7.8,22.5,6.76,23.55,5.94ZM12,12c1.09,0,2.65-1.37,3.44-1.94,6.22-4.51,6.69-4.91,8.13-6A1.13,1.13,0,0,0,24,3.14V2.25A2.25,2.25,0,0,0,21.75,0H2.25A2.25,2.25,0,0,0,0,2.25v.89A1.14,1.14,0,0,0,.43,4c1.44,1.12,1.91,1.52,8.13,6,.79.57,2.35,2,3.44,1.94Z" style="fill: #1d1d1b"/>
    </g>
  </g>
</svg>
