<svg xmlns="http://www.w3.org/2000/svg" width="24" height="23.4" viewBox="0 0 24 23.4">
  <title>github</title>
  <g id="Camada_2" data-name="Camada 2">
    <g id="Camada_1-2" data-name="Camada 1">
      <path d="M8,18.84c0,.1-.11.18-.25.18S7.5,19,7.5,18.84s.12-.17.26-.17S8,18.73,8,18.84Zm-1.51-.22c0,.1.07.21.21.24a.22.22,0,0,0,.3-.1c0-.09-.06-.2-.21-.25a.27.27,0,0,0-.3.11Zm2.14-.08c-.14,0-.24.13-.22.24s.14.16.28.12.24-.12.23-.22S8.8,18.53,8.66,18.54ZM11.85,0A11.61,11.61,0,0,0,0,11.81,12.14,12.14,0,0,0,8.2,23.38c.62.11.84-.27.84-.58s0-2,0-3c0,0-3.38.73-4.09-1.44,0,0-.56-1.41-1.35-1.77,0,0-1.11-.76.08-.74a2.55,2.55,0,0,1,1.87,1.24,2.55,2.55,0,0,0,3.52,1,2.63,2.63,0,0,1,.78-1.63c-2.71-.3-5.44-.7-5.44-5.35A3.65,3.65,0,0,1,5.54,8.3,4.56,4.56,0,0,1,5.66,5C6.67,4.7,9,6.32,9,6.32a11.48,11.48,0,0,1,6.08,0S17.4,4.69,18.42,5a4.56,4.56,0,0,1,.12,3.29,3.73,3.73,0,0,1,1.25,2.85c0,4.67-2.85,5-5.55,5.35a2.86,2.86,0,0,1,.82,2.24c0,1.63,0,3.65,0,4.05s.23.69.84.58A12,12,0,0,0,24,11.81,11.86,11.86,0,0,0,11.85,0ZM4.7,16.69c-.06,0,0,.16,0,.25s.19.11.25,0,0-.16,0-.25A.18.18,0,0,0,4.7,16.69Zm-.52-.39c0,.06,0,.14.11.19s.18,0,.21,0,0-.14-.11-.19S4.21,16.25,4.18,16.3ZM5.75,18c-.08.06,0,.21.06.3s.25.13.32.05a.23.23,0,0,0-.07-.3C6,18,5.81,17.94,5.75,18Zm-.55-.71c-.08.05-.08.17,0,.28s.2.16.27.11.08-.18,0-.3-.2-.15-.27-.09Z" style="fill: #1d1d1b"/>
    </g>
  </g>
</svg>
