<svg xmlns="http://www.w3.org/2000/svg" width="24" height="24" viewBox="0 0 24 24">
  <title>linkedin</title>
  <g id="Camada_2" data-name="Camada 2">
    <g id="Camada_1-2" data-name="Camada 1">
      <path d="M22.29,0H1.71A1.73,1.73,0,0,0,0,1.73V22.27A1.73,1.73,0,0,0,1.71,24H22.29A1.73,1.73,0,0,0,24,22.27V1.73A1.73,1.73,0,0,0,22.29,0Zm-15,20.57H3.7V9.12H7.26V20.57Zm-1.78-13A2.06,2.06,0,1,1,7.54,5.49,2.06,2.06,0,0,1,5.47,7.55Zm15.12,13H17V15c0-1.33,0-3-1.85-3S13,13.41,13,14.9v5.67H9.49V9.12H12.9v1.56h0a3.74,3.74,0,0,1,3.37-1.85c3.6,0,4.27,2.38,4.27,5.46Z" style="fill: #1d1d1b"/>
    </g>
  </g>
</svg>
