<svg id="_3R_Eventos_Converted_" data-name="3R Eventos [Converted]" xmlns="http://www.w3.org/2000/svg" width="158.735"
     height="157.512" viewBox="0 0 158.735 157.512">
  <path id="Caminho_821" data-name="Caminho 821"
        d="M79.818.5h.061a79.469,79.469,0,0,1,67.49,37.322,78.092,78.092,0,0,1,11.865,41.391v.071a78.39,78.39,0,0,1-33.823,64.472,79.246,79.246,0,0,1-23.333,11.126,80.286,80.286,0,0,1-22.174,3.13h-.063a79.49,79.49,0,0,1-64.014-32.234A78.071,78.071,0,0,1,.5,79.292v-.069A78.159,78.159,0,0,1,7.92,45.972,79.39,79.39,0,0,1,57.669,3.627,80.238,80.238,0,0,1,79.818.5ZM73.577,3.947a76.21,76.21,0,0,0-63.52,45.018,75.125,75.125,0,0,0,19.554,87.07,76.463,76.463,0,0,0,118.519-23.187A74.2,74.2,0,0,0,155.487,88.5,74.986,74.986,0,0,0,148.788,47,76.307,76.307,0,0,0,73.577,3.947Z"
        transform="translate(-0.5 -0.5)" fill="#d90069"/>
  <path id="Caminho_822" data-name="Caminho 822"
        d="M95.678,23.322a74.728,74.728,0,0,1,20.077,1.19,73.285,73.285,0,0,1,26.213,10.779,74.065,74.065,0,1,1-113.92,70.64,74.175,74.175,0,0,1,21.245-61.21A73.61,73.61,0,0,1,92.367,23.668C93.457,23.512,94.576,23.442,95.678,23.322Zm1.687,1.512A71.115,71.115,0,0,0,75,29.71a72.659,72.659,0,0,0-8.866,130.876,72.075,72.075,0,0,0,67.315,1.706A72.647,72.647,0,0,0,122.637,27.9a71.875,71.875,0,0,0-25.271-3.063Z"
        transform="translate(-22.037 -18.501)" fill="#d90069"/>
  <path id="Caminho_823" data-name="Caminho 823"
        d="M117.6,75.6c1.481.067,2.936.408,4.42.461,2.926.075,5.85.444,8.78.279.528.033.67.648.677,1.08.077,1.834,0,3.668,0,5.5.026.815-.228,1.63-.216,2.445-.016,9.17-.2,18.339-.185,27.509.053.9-.249,1.763-.216,2.659v9.781a34.718,34.718,0,0,1-.169,4.874c-.11,2.649,0,5.3-.055,7.947Q109.091,150.11,87.62,162.252c-3.5,1.989-7.032,3.927-10.514,5.95-2-3.923-4.652-7.452-6.957-11.191-1.871-3.126-3.6-6.586-3.513-10.321a14.727,14.727,0,0,1,3.272-8.74,19.154,19.154,0,0,1,6.928-5.661A17.1,17.1,0,0,1,87.61,130.1a12.43,12.43,0,0,1,4.907,1.885c.758.479,1.363,1.168,2.158,1.6a23.436,23.436,0,0,1-1.312-7.054,34.569,34.569,0,0,1,.958-6.928c.544-2.977,1.437-5.873,2.231-8.788a85.582,85.582,0,0,0,2.482-11.831,29.355,29.355,0,0,0,.145-6.686,9.847,9.847,0,0,0-1.724-4.947c-.54-.732-1.408-1.1-2.013-1.769a3.54,3.54,0,0,1,1.331-.67,8.306,8.306,0,0,1,5.265,3.751,16.728,16.728,0,0,1,2.146,7.933c-.3,2.085-.32,4.21-.713,6.286-1.257,7.9-4.638,15.317-5.469,23.3-.2,1.536-.116,3.1-.342,4.632a27.807,27.807,0,0,0,.964,6.506,10.63,10.63,0,0,0,1.235,3.091,45.1,45.1,0,0,1,.408-7.507,95.1,95.1,0,0,1,3.464-14.088c1.174-4.134,2.427-8.255,3.279-12.473a37.119,37.119,0,0,0,.8-6.9,11.47,11.47,0,0,0-.768-4.383,9.252,9.252,0,0,1-.554-1.528l.236-.528a7.518,7.518,0,0,1,2.7,2.991,17.493,17.493,0,0,1,2.559,9.577,32.984,32.984,0,0,1-1.31,7.448c-2.021,8.668-5.624,16.913-7.187,25.689a24.48,24.48,0,0,0-.226,8.273c.169.55.833.263,1.137,0,4.352-2.6,8.952-4.778,13.2-7.564,2.382-1.549,4.8-3.289,6.211-5.822a15.186,15.186,0,0,0,1.653-6.39,71,71,0,0,0,.426-9.826q-.018-14.264,0-28.527a13.581,13.581,0,0,0-1.952-7.6,9.891,9.891,0,0,0-4.165-3.586c-.705-.318-1.473-.465-2.178-.785C117.6,76.442,117.6,76.022,117.6,75.6ZM79.272,137.2c-3.12,1.651-6.013,4.181-7.191,7.6-.982,2.783-.263,5.816.815,8.456a17.167,17.167,0,0,0,3.6,5.553,3.491,3.491,0,0,0,2.539,1.272,12.055,12.055,0,0,0,3.713-1.3c2.419-1.223,4.8-2.519,7.2-3.79,3.381-1.848,6.81-3.621,10.076-5.669-.644-1.461-1-3.028-1.63-4.5a22.753,22.753,0,0,0-3.114-5.237,10.989,10.989,0,0,0-6.082-4.173C85.817,134.623,82.292,135.646,79.272,137.2Zm20.556,3.26"
        transform="translate(-53.157 -60.297)" fill="#d90069"/>
  <path id="Caminho_824" data-name="Caminho 824"
        d="M401.762,78.271c3.7-.2,7.427-.108,11.118-.53a29.707,29.707,0,0,1,8.513.5,11.885,11.885,0,0,1,5.673,2.7,16.152,16.152,0,0,1,3.637,4.322c1.789,3.319,2.142,7.183,2.095,10.891a16.687,16.687,0,0,1-1.019,5.736,13.652,13.652,0,0,1-6.737,7.922c-.764.408-1.657.534-2.384,1.019a22.116,22.116,0,0,1,4.994,1.337c3.719,1.63,6.757,4.442,9.549,7.336,4.919,5.094,9.8,10.368,15.845,14.141a15.022,15.022,0,0,0,6.692,2.551,6.449,6.449,0,0,0,3.882-.87,5.6,5.6,0,0,1,.391,1.276c-1.245.738-2.038,2.127-3.48,2.529a10.919,10.919,0,0,1-4.061.528,17.792,17.792,0,0,1-8.656-3.668,55.789,55.789,0,0,1-6-5.029,101.989,101.989,0,0,1-7.25-7.411,32.786,32.786,0,0,0-3.552-3.383c-1.663-1.322-3.281-2.7-4.972-3.984a23.6,23.6,0,0,0-11.967-4.505,6.235,6.235,0,0,0,1.752,1.037c4.63,2.6,8.338,6.47,12.126,10.123,1.41,1.585,3.126,2.883,4.4,4.593a69.282,69.282,0,0,0,7.132,7.087,31.64,31.64,0,0,0,8.336,5.752c1.223.64,2.832.163,3.935,1.1a3.656,3.656,0,0,1-1.995.923,11.778,11.778,0,0,1-3.707.039,16.551,16.551,0,0,1-6.47-1.807,26.5,26.5,0,0,1-3.383-2.315c-1.5-1.28-2.81-2.769-4.385-3.961-2.292-2.19-4.405-4.56-6.584-6.863q-4.314-4.734-8.8-9.333a31.49,31.49,0,0,0-5.241-4.342,14.675,14.675,0,0,0-4.734-2.384,11.591,11.591,0,0,0-.2,1.952c-.118,3.731.045,7.462.057,11.195.092,3.717-.137,7.649,1.557,11.081,1.583,3.067,4.573,5.037,7.391,6.861,7.044,4.279,14.154,8.444,21.208,12.7,2.649,1.545,5.243,3.167,7.92,4.654,2.812,1.518,5.952,2.741,9.2,2.525a8.413,8.413,0,0,0,6.488-3.328c.408.31.815.593,1.235.9a14.291,14.291,0,0,0-1.9,2.421c-1.995,2.993-3.951,6.015-5.979,8.986A25.074,25.074,0,0,0,450.3,169.3q-23.449-14.021-46.911-28.042c-.67-.426-1.426-.707-2.072-1.161-.528-.424-.348-1.178-.385-1.767.145-11.411.234-22.822.381-34.233a37.752,37.752,0,0,1,.234-5.282C401.6,91.972,401.75,85.119,401.762,78.271Zm6.975,4.632c-1.064.44-1.284,1.669-1.437,2.68-.155,1.547-.365,3.087-.5,4.636-.2,5.561-.116,11.132-.232,16.7-.016.132-.051.408-.067.532a15.711,15.711,0,0,0,4.921.872,34.816,34.816,0,0,0,4.721.145c2.527-.344,5.172-.962,7.12-2.718,2.527-2.182,3.678-5.536,4-8.776a17.728,17.728,0,0,0-1.119-8.8,9.772,9.772,0,0,0-6.739-5.657c-3.476-.895-7.334-1.1-10.677.393Z"
        transform="translate(-319.338 -61.917)" fill="#d90069"/>
  <path id="Caminho_825" data-name="Caminho 825"
        d="M557.2,93.92a2.83,2.83,0,0,1,.893.24,18.379,18.379,0,0,1,7.022,5.485,16.138,16.138,0,0,1,2.425,7.853,21.366,21.366,0,0,1-.6,4.244,13.8,13.8,0,0,1-6.188,7.8,12.213,12.213,0,0,1-3.221,1.445c.481-1.056,1.035-2.074,1.6-3.089a24.678,24.678,0,0,0,2.423-11.018,23.612,23.612,0,0,0-1.938-8.53Q558.431,96.125,557.2,93.92Z"
        transform="translate(-443.763 -74.884)" fill="#d90069"/>
  <path id="Caminho_826" data-name="Caminho 826"
        d="M62.507,304.22a14.274,14.274,0,0,1,12.837,3.586,25.758,25.758,0,0,0-15.079,3.973,20.828,20.828,0,0,0-4.467,4.09,19.618,19.618,0,0,0-3.668,5.706l-.33-.361a20.334,20.334,0,0,1,1.047-8.888A13.865,13.865,0,0,1,62.507,304.22Z"
        transform="translate(-41.284 -242.051)" fill="#d90069"/>
  <path id="Caminho_827" data-name="Caminho 827"
        d="M180.363,400.221a3.832,3.832,0,0,0,.954-.711c17.634,10.457,35.185,21.055,52.79,31.559-1.606,2.928-3.191,5.868-4.662,8.866-1.683,3.317-3.464,6.724-6.252,9.251a13.212,13.212,0,0,1-8.715,3.442,19.154,19.154,0,0,1-10.91-3.134,19.606,19.606,0,0,1-6.759-6.834,10.157,10.157,0,0,1-1.341-4,50.36,50.36,0,0,1,.137-5.706,20.66,20.66,0,0,1-8.462,6.3c-7.336,2.981-15.27,4.006-22.634,6.869a35.932,35.932,0,0,0-4.762,2.341c-2.038,1.223-4.11,2.68-5.2,4.864-.518.95-.493,2.066-.913,3.057-.344-.132-.833-.12-.982-.528a8.292,8.292,0,0,1,.094-5.76c.913-2.688,3.116-4.672,5.426-6.19,3.678-2.4,7.947-3.641,12.128-4.842,4.774-1.386,9.654-2.415,14.351-4.055a34.6,34.6,0,0,0,9.361-4.8,21.874,21.874,0,0,0,5.159-5.2,2.215,2.215,0,0,0-1.058.564,26.667,26.667,0,0,1-4.322,2.364,69.874,69.874,0,0,1-10.549,3.5c-5.308,1.426-10.673,2.649-15.947,4.21-4.114,1.19-8.391,2.745-11.293,6.058-.442.444-.683,1.194-1.343,1.359-.448-.585.035-1.347.171-1.968a16.172,16.172,0,0,1,3.444-5.443,14.586,14.586,0,0,1,7.16-4.634c3.572-1.117,7.089-2.425,10.743-3.26,4.972-1.188,10.038-1.989,14.938-3.464a40.084,40.084,0,0,0,7.686-2.741,21.6,21.6,0,0,0,4.454-2.9c-1.728-1.161-3.556-2.16-5.335-3.236a104.122,104.122,0,0,0-11.207-6.245,11.037,11.037,0,0,0-6.048-1.286c-2.967.059-5.705,1.343-8.281,2.684-7.366,3.833-14.494,8.1-21.746,12.143-2.8,1.63-5.673,3.12-8.432,4.817a17.449,17.449,0,0,0-6.633,6.8,8.6,8.6,0,0,0-.361,7.15c-.424.2-.84.408-1.259.624a16.5,16.5,0,0,0-1.677-3.975c-1.534-2.788-2.883-5.671-4.322-8.509,6.9-3.713,13.667-7.658,20.5-11.482,3.9-2.211,7.743-4.53,11.692-6.667C166.992,407.891,173.612,403.936,180.363,400.221Zm20.9,27.462a12.649,12.649,0,0,0-1.223,9.7c.892,3.018,3.309,5.255,5.838,6.971a15.684,15.684,0,0,0,9.394,2.983,9.33,9.33,0,0,0,6.494-3.228,19.848,19.848,0,0,0,4.756-8.037c.132-.968.367-2.193-.448-2.932a26.342,26.342,0,0,0-4.026-3.107c-5.094-3.395-10.447-6.388-15.69-9.534C204.585,422.839,202.561,425.024,201.259,427.683Z"
        transform="translate(-101.988 -318.205)" fill="#d90069"/>
  <path id="Caminho_828" data-name="Caminho 828"
        d="M444.274,619.608a9.831,9.831,0,0,1,.408-4.3,27.377,27.377,0,0,0,3.535,5.267,25.6,25.6,0,0,0,7.762,5.86,27.484,27.484,0,0,0,12.132,2.129,16.986,16.986,0,0,1-9.339,3.945,12.9,12.9,0,0,1-8.222-2.241,20.326,20.326,0,0,1-3.627-3.295A13.65,13.65,0,0,1,444.274,619.608Z"
        transform="translate(-353.795 -490.032)" fill="#d90069"/>
  <path id="Caminho_829" data-name="Caminho 829" d="M229.54,393.87" transform="translate(-182.869 -313.714)"
        fill="#d90069"/>
</svg>
