<svg xmlns="http://www.w3.org/2000/svg" width="24" height="24" viewBox="0 0 24 24">
  <title>site</title>
  <g id="Camada_2" data-name="Camada 2">
    <g id="Camada_1-2" data-name="Camada 1">
      <path d="M20.25,15h-1.5a.76.76,0,0,0-.75.75V21H3V6H9.75a.76.76,0,0,0,.75-.75V3.75A.76.76,0,0,0,9.75,3H2.25A2.25,2.25,0,0,0,0,5.25v16.5A2.25,2.25,0,0,0,2.25,24h16.5A2.25,2.25,0,0,0,21,21.75h0v-6A.76.76,0,0,0,20.25,15ZM22.88,0h-6a1.12,1.12,0,0,0-.8,1.92L17.75,3.6,6.33,15a1.12,1.12,0,0,0,0,1.59h0l1.06,1.06a1.12,1.12,0,0,0,1.59,0H9L20.4,6.25l1.68,1.67A1.12,1.12,0,0,0,24,7.13v-6A1.12,1.12,0,0,0,22.88,0Z"/>
    </g>
  </g>
</svg>
