<svg xmlns="http://www.w3.org/2000/svg" width="24" height="24" viewBox="0 0 24 24">
  <title>whatsapp</title>
  <g id="Camada_2" data-name="Camada 2">
    <g id="Camada_1-2" data-name="Camada 1">
      <path d="M20.41,3.49A11.9,11.9,0,0,0,1.69,17.84L0,24l6.31-1.66A11.82,11.82,0,0,0,12,23.79h0A12,12,0,0,0,24,11.9,12,12,0,0,0,20.41,3.49ZM12,21.79a9.86,9.86,0,0,1-5-1.38L6.6,20.2l-3.74,1,1-3.65-.24-.38A9.9,9.9,0,1,1,22,11.9,10,10,0,0,1,12,21.79Zm5.43-7.41c-.3-.15-1.76-.86-2-1s-.48-.15-.67.15-.77,1-1,1.17-.35.22-.64.07a8.06,8.06,0,0,1-4-3.53c-.31-.53.3-.49.87-1.63a.53.53,0,0,0,0-.52C9.86,9,9.26,7.52,9,6.93s-.49-.5-.67-.51H7.78A1.07,1.07,0,0,0,7,6.78,3.3,3.3,0,0,0,6,9.26a5.77,5.77,0,0,0,1.21,3.07,13.21,13.21,0,0,0,5.08,4.49c1.88.82,2.62.89,3.56.75a3.06,3.06,0,0,0,2-1.42A2.58,2.58,0,0,0,18,14.74C17.91,14.6,17.71,14.53,17.42,14.38Z" style="fill: #1d1d1b"/>
    </g>
  </g>
</svg>
