<?xml version="1.0" encoding="utf-8"?>
<!-- Generator: Adobe Illustrator 24.0.1, SVG Export Plug-In . SVG Version: 6.00 Build 0)  -->
<svg version="1.1" id="Camada_1" xmlns="http://www.w3.org/2000/svg" xmlns:xlink="http://www.w3.org/1999/xlink" x="0px" y="0px"
	 viewBox="0 0 100 100" style="enable-background:new 0 0 100 100;" xml:space="preserve">
<style type="text/css">
	.st0{fill:#FFFFFF;}
	.st1{fill:#1D1D1B;}
</style>
<rect class="st0" width="100" height="100"/>
<g>
	<path class="st1" d="M13.2,74.6c-2.9-1.3-5.3-3.1-7.2-5.5l6.6-7.9c2.8,3.8,6,5.7,9.5,5.7c4.8,0,7.3-2.8,7.3-8.5V33.9h-18v-9.5h29.9
		v33.3c0,6.3-1.6,11-4.7,14.2c-3.1,3.2-7.7,4.7-13.8,4.7C19.3,76.6,16.1,75.9,13.2,74.6z"/>
	<path class="st1" d="M58.6,73.2c-4.2-2.3-7.6-5.4-10-9.5c-2.4-4-3.6-8.6-3.6-13.7s1.2-9.7,3.6-13.7c2.4-4,5.7-7.2,10-9.5
		c4.2-2.3,9-3.4,14.3-3.4c4.5,0,8.5,0.8,12.1,2.3c3.6,1.6,6.6,3.8,9.1,6.8l-7.6,7c-3.5-4-7.8-6-12.9-6c-3.2,0-6,0.7-8.5,2.1
		c-2.5,1.4-4.4,3.3-5.8,5.8C57.7,44,57,46.8,57,50s0.7,6,2.1,8.5c1.4,2.5,3.3,4.4,5.8,5.8c2.5,1.4,5.3,2.1,8.5,2.1
		c5.1,0,9.4-2,12.9-6.1l7.6,7c-2.4,3-5.5,5.3-9.1,6.8c-3.6,1.6-7.7,2.3-12.1,2.3C67.6,76.6,62.8,75.4,58.6,73.2z"/>
</g>
</svg>
